<svg xmlns="http://www.w3.org/2000/svg" xmlns:xlink="http://www.w3.org/1999/xlink" width="500" zoomAndPan="magnify" viewBox="0 0 375 374.999991" height="500" preserveAspectRatio="xMidYMid meet" version="1.0"><defs><g/><clipPath id="1b64e62bd6"><path d="M 187.5 0 C 83.945312 0 0 83.945312 0 187.5 C 0 291.054688 83.945312 375 187.5 375 C 291.054688 375 375 291.054688 375 187.5 C 375 83.945312 291.054688 0 187.5 0 Z M 187.5 0 " clip-rule="nonzero"/></clipPath></defs><g clip-path="url(#1b64e62bd6)"><rect x="-37.5" width="450" fill="#ffffff" y="-37.499999" height="449.999989" fill-opacity="1"/><path stroke-linecap="butt" transform="matrix(0.75, 0, 0, 0.75, 0.0000045, 0)" fill="none" stroke-linejoin="miter" d="M 249.999994 0 C 111.927078 0 -0.000006 111.927084 -0.000006 250 C -0.000006 388.072917 111.927078 500.000001 249.999994 500.000001 C 388.072911 500.000001 499.999995 388.072917 499.999995 250 C 499.999995 111.927084 388.072911 0 249.999994 0 Z M 249.999994 0 " stroke="#353535" stroke-width="10" stroke-opacity="1" stroke-miterlimit="4"/></g><g fill="#353535" fill-opacity="1"><g transform="translate(78.968114, 272.243006)"><g><path d="M 202.328125 0 L 167.828125 0 L 167.828125 -107.046875 C 167.828125 -114.890625 166.320312 -122.007812 163.3125 -128.40625 C 160.300781 -134.8125 156.050781 -140.300781 150.5625 -144.875 C 145.070312 -149.457031 138.601562 -152.988281 131.15625 -155.46875 C 123.707031 -157.957031 115.539062 -159.203125 106.65625 -159.203125 C 97.507812 -159.203125 89.144531 -157.5 81.5625 -154.09375 C 73.976562 -150.695312 67.441406 -146.054688 61.953125 -140.171875 C 56.460938 -134.296875 52.210938 -127.367188 49.203125 -119.390625 C 46.203125 -111.421875 44.703125 -102.734375 44.703125 -93.328125 C 44.703125 -84.429688 46.203125 -76.128906 49.203125 -68.421875 C 52.210938 -60.710938 56.460938 -53.914062 61.953125 -48.03125 C 67.441406 -42.15625 73.976562 -37.515625 81.5625 -34.109375 C 89.144531 -30.710938 97.378906 -29.015625 106.265625 -29.015625 C 116.191406 -29.015625 125.078125 -31.429688 132.921875 -36.265625 C 140.765625 -41.109375 147.691406 -47.316406 153.703125 -54.890625 L 153.703125 -14.109375 C 146.390625 -8.359375 138.875 -3.914062 131.15625 -0.78125 C 123.445312 2.351562 113.972656 3.921875 102.734375 3.921875 C 89.660156 3.921875 77.4375 1.375 66.0625 -3.71875 C 54.695312 -8.820312 44.894531 -15.816406 36.65625 -24.703125 C 28.425781 -33.585938 21.957031 -44.171875 17.25 -56.453125 C 12.539062 -68.742188 10.1875 -81.945312 10.1875 -96.0625 C 10.1875 -110.175781 12.539062 -123.179688 17.25 -135.078125 C 21.957031 -146.972656 28.625 -157.101562 37.25 -165.46875 C 45.875 -173.832031 56.132812 -180.367188 68.03125 -185.078125 C 79.925781 -189.785156 93.0625 -192.140625 107.4375 -192.140625 C 121.8125 -192.140625 134.878906 -189.976562 146.640625 -185.65625 C 158.410156 -181.34375 168.410156 -175.332031 176.640625 -167.625 C 184.878906 -159.914062 191.21875 -150.703125 195.65625 -139.984375 C 200.101562 -129.265625 202.328125 -117.367188 202.328125 -104.296875 Z M 202.328125 0 "/></g></g></g></svg>