<svg xmlns="http://www.w3.org/2000/svg" xmlns:xlink="http://www.w3.org/1999/xlink" width="500" zoomAndPan="magnify" viewBox="0 0 375 374.999991" height="500" preserveAspectRatio="xMidYMid meet" version="1.0"><defs><g/></defs><g fill="#8a0015" fill-opacity="1"><g transform="translate(37.500002, 309.130413)"><g><path d="M 274.328125 0 L 227.546875 0 L 227.546875 -145.140625 C 227.546875 -155.773438 225.507812 -165.429688 221.4375 -174.109375 C 217.363281 -182.796875 211.601562 -190.238281 204.15625 -196.4375 C 196.707031 -202.644531 187.929688 -207.429688 177.828125 -210.796875 C 167.734375 -214.171875 156.660156 -215.859375 144.609375 -215.859375 C 132.203125 -215.859375 120.859375 -213.550781 110.578125 -208.9375 C 100.304688 -204.332031 91.445312 -198.039062 84 -190.0625 C 76.5625 -182.09375 70.800781 -172.703125 66.71875 -161.890625 C 62.644531 -151.078125 60.609375 -139.289062 60.609375 -126.53125 C 60.609375 -114.476562 62.644531 -103.222656 66.71875 -92.765625 C 70.800781 -82.316406 76.5625 -73.101562 84 -65.125 C 91.445312 -57.15625 100.304688 -50.863281 110.578125 -46.25 C 120.859375 -41.644531 132.023438 -39.34375 144.078125 -39.34375 C 157.546875 -39.34375 169.597656 -42.617188 180.234375 -49.171875 C 190.867188 -55.734375 200.257812 -64.15625 208.40625 -74.4375 L 208.40625 -19.140625 C 198.476562 -11.335938 188.285156 -5.3125 177.828125 -1.0625 C 167.378906 3.1875 154.535156 5.3125 139.296875 5.3125 C 121.578125 5.3125 105.003906 1.859375 89.578125 -5.046875 C 74.160156 -11.960938 60.867188 -21.445312 49.703125 -33.5 C 38.546875 -45.550781 29.773438 -59.90625 23.390625 -76.5625 C 17.015625 -93.21875 13.828125 -111.113281 13.828125 -130.25 C 13.828125 -149.394531 17.015625 -167.03125 23.390625 -183.15625 C 29.773438 -199.28125 38.8125 -213.015625 50.5 -224.359375 C 62.195312 -235.703125 76.109375 -244.5625 92.234375 -250.9375 C 108.367188 -257.320312 126.179688 -260.515625 145.671875 -260.515625 C 165.171875 -260.515625 182.894531 -257.585938 198.84375 -251.734375 C 214.789062 -245.890625 228.347656 -237.738281 239.515625 -227.28125 C 250.679688 -216.820312 259.273438 -204.328125 265.296875 -189.796875 C 271.316406 -175.265625 274.328125 -159.140625 274.328125 -141.421875 Z M 274.328125 0 "/></g></g></g></svg>