<svg xmlns="http://www.w3.org/2000/svg" xmlns:xlink="http://www.w3.org/1999/xlink" width="500" zoomAndPan="magnify" viewBox="0 0 375 374.999991" height="500" preserveAspectRatio="xMidYMid meet" version="1.0"><defs><g/></defs><rect x="-37.5" width="450" fill="#ffffff" y="-37.499999" height="449.999989" fill-opacity="1"/><rect x="-37.5" width="450" fill="#8a0015" y="-37.499999" height="449.999989" fill-opacity="1"/><g fill="#f7f7f0" fill-opacity="1"><g transform="translate(107.134759, 243.246918)"><g><path d="M 149.8125 0 L 124.265625 0 L 124.265625 -79.265625 C 124.265625 -85.066406 123.148438 -90.335938 120.921875 -95.078125 C 118.703125 -99.828125 115.554688 -103.894531 111.484375 -107.28125 C 107.421875 -110.664062 102.628906 -113.273438 97.109375 -115.109375 C 91.597656 -116.953125 85.550781 -117.875 78.96875 -117.875 C 72.195312 -117.875 66.003906 -116.613281 60.390625 -114.09375 C 54.773438 -111.582031 49.9375 -108.148438 45.875 -103.796875 C 41.8125 -99.441406 38.664062 -94.3125 36.4375 -88.40625 C 34.207031 -82.5 33.09375 -76.066406 33.09375 -69.109375 C 33.09375 -62.523438 34.207031 -56.375 36.4375 -50.65625 C 38.664062 -44.945312 41.8125 -39.914062 45.875 -35.5625 C 49.9375 -31.207031 54.773438 -27.769531 60.390625 -25.25 C 66.003906 -22.738281 72.101562 -21.484375 78.6875 -21.484375 C 86.039062 -21.484375 92.617188 -23.273438 98.421875 -26.859375 C 104.234375 -30.441406 109.363281 -35.035156 113.8125 -40.640625 L 113.8125 -10.453125 C 108.394531 -6.191406 102.832031 -2.898438 97.125 -0.578125 C 91.414062 1.742188 84.394531 2.90625 76.0625 2.90625 C 66.382812 2.90625 57.335938 1.019531 48.921875 -2.75 C 40.503906 -6.53125 33.242188 -11.707031 27.140625 -18.28125 C 21.046875 -24.863281 16.253906 -32.703125 12.765625 -41.796875 C 9.285156 -50.898438 7.546875 -60.679688 7.546875 -71.140625 C 7.546875 -81.585938 9.285156 -91.210938 12.765625 -100.015625 C 16.253906 -108.828125 21.191406 -116.328125 27.578125 -122.515625 C 33.960938 -128.710938 41.554688 -133.550781 50.359375 -137.03125 C 59.171875 -140.519531 68.898438 -142.265625 79.546875 -142.265625 C 90.191406 -142.265625 99.867188 -140.664062 108.578125 -137.46875 C 117.296875 -134.28125 124.703125 -129.832031 130.796875 -124.125 C 136.898438 -118.414062 141.59375 -111.59375 144.875 -103.65625 C 148.164062 -95.71875 149.8125 -86.910156 149.8125 -77.234375 Z M 149.8125 0 "/></g></g></g></svg>