<svg xmlns="http://www.w3.org/2000/svg" xmlns:xlink="http://www.w3.org/1999/xlink" width="150" zoomAndPan="magnify" viewBox="0 0 112.5 37.5" height="50" preserveAspectRatio="xMidYMid meet" version="1.0"><defs><g/></defs><g fill="#332d27" fill-opacity="1"><g transform="translate(5.526316, 27.815946)"><g><path d="M 20.65625 0 L 17.140625 0 L 17.140625 -10.921875 C 17.140625 -11.722656 16.984375 -12.453125 16.671875 -13.109375 C 16.367188 -13.765625 15.9375 -14.320312 15.375 -14.78125 C 14.8125 -15.25 14.148438 -15.609375 13.390625 -15.859375 C 12.628906 -16.117188 11.796875 -16.25 10.890625 -16.25 C 9.953125 -16.25 9.097656 -16.078125 8.328125 -15.734375 C 7.554688 -15.390625 6.890625 -14.914062 6.328125 -14.3125 C 5.765625 -13.707031 5.328125 -13 5.015625 -12.1875 C 4.710938 -11.375 4.5625 -10.488281 4.5625 -9.53125 C 4.5625 -8.625 4.710938 -7.773438 5.015625 -6.984375 C 5.328125 -6.191406 5.765625 -5.492188 6.328125 -4.890625 C 6.890625 -4.296875 7.554688 -3.828125 8.328125 -3.484375 C 9.097656 -3.140625 9.9375 -2.96875 10.84375 -2.96875 C 11.863281 -2.96875 12.769531 -3.210938 13.5625 -3.703125 C 14.363281 -4.191406 15.070312 -4.828125 15.6875 -5.609375 L 15.6875 -1.4375 C 14.945312 -0.851562 14.179688 -0.398438 13.390625 -0.078125 C 12.597656 0.242188 11.628906 0.40625 10.484375 0.40625 C 9.148438 0.40625 7.898438 0.144531 6.734375 -0.375 C 5.578125 -0.894531 4.578125 -1.609375 3.734375 -2.515625 C 2.898438 -3.429688 2.242188 -4.515625 1.765625 -5.765625 C 1.285156 -7.015625 1.046875 -8.363281 1.046875 -9.8125 C 1.046875 -11.25 1.285156 -12.570312 1.765625 -13.78125 C 2.242188 -15 2.921875 -16.035156 3.796875 -16.890625 C 4.679688 -17.742188 5.726562 -18.410156 6.9375 -18.890625 C 8.15625 -19.367188 9.5 -19.609375 10.96875 -19.609375 C 12.4375 -19.609375 13.769531 -19.390625 14.96875 -18.953125 C 16.164062 -18.515625 17.1875 -17.898438 18.03125 -17.109375 C 18.875 -16.328125 19.519531 -15.390625 19.96875 -14.296875 C 20.425781 -13.203125 20.65625 -11.984375 20.65625 -10.640625 Z M 20.65625 0 "/></g></g></g><g fill="#332d27" fill-opacity="1"><g transform="translate(23.176438, 27.815946)"><g><path d="M 6.203125 -28.015625 L 6.203125 0 L 2.6875 0 L 2.6875 -28.015625 Z M 6.203125 -28.015625 "/></g></g></g><g fill="#332d27" fill-opacity="1"><g transform="translate(27.458758, 27.815946)"><g><path d="M 7.484375 -6.328125 L 6.046875 -9.125 L 15.53125 -14.40625 C 14.863281 -15.070312 14.226562 -15.546875 13.625 -15.828125 C 13.03125 -16.109375 12.210938 -16.25 11.171875 -16.25 C 10.234375 -16.25 9.382812 -16.085938 8.625 -15.765625 C 7.863281 -15.453125 7.203125 -15 6.640625 -14.40625 C 6.078125 -13.820312 5.644531 -13.125 5.34375 -12.3125 C 5.039062 -11.5 4.890625 -10.597656 4.890625 -9.609375 C 4.890625 -8.617188 5.039062 -7.71875 5.34375 -6.90625 C 5.644531 -6.09375 6.078125 -5.390625 6.640625 -4.796875 C 7.203125 -4.210938 7.863281 -3.757812 8.625 -3.4375 C 9.382812 -3.125 10.234375 -2.96875 11.171875 -2.96875 C 13.015625 -2.96875 14.4375 -3.4375 15.4375 -4.375 C 16.4375 -5.320312 17.160156 -6.851562 17.609375 -8.96875 L 21.171875 -8.53125 C 21.035156 -7.195312 20.691406 -5.972656 20.140625 -4.859375 C 19.597656 -3.753906 18.878906 -2.8125 17.984375 -2.03125 C 17.097656 -1.257812 16.070312 -0.660156 14.90625 -0.234375 C 13.75 0.191406 12.503906 0.40625 11.171875 0.40625 C 9.804688 0.40625 8.515625 0.148438 7.296875 -0.359375 C 6.085938 -0.867188 5.035156 -1.5625 4.140625 -2.4375 C 3.242188 -3.320312 2.53125 -4.378906 2 -5.609375 C 1.46875 -6.835938 1.203125 -8.171875 1.203125 -9.609375 C 1.203125 -11.078125 1.472656 -12.421875 2.015625 -13.640625 C 2.566406 -14.867188 3.296875 -15.925781 4.203125 -16.8125 C 5.109375 -17.695312 6.160156 -18.382812 7.359375 -18.875 C 8.566406 -19.363281 9.835938 -19.609375 11.171875 -19.609375 C 13.441406 -19.609375 15.328125 -19.0625 16.828125 -17.96875 C 18.335938 -16.875 19.546875 -15.394531 20.453125 -13.53125 Z M 7.484375 -6.328125 "/></g></g></g><g fill="#8a0015" fill-opacity="1"><g transform="translate(45.110202, 27.815946)"><g><path d="M 21.21875 -9.125 C 21.21875 -7.789062 20.960938 -6.539062 20.453125 -5.375 C 19.953125 -4.21875 19.28125 -3.210938 18.4375 -2.359375 C 17.59375 -1.503906 16.609375 -0.828125 15.484375 -0.328125 C 14.367188 0.160156 13.195312 0.40625 11.96875 0.40625 C 11.007812 0.40625 10.078125 0.296875 9.171875 0.078125 C 8.265625 -0.128906 7.382812 -0.472656 6.53125 -0.953125 L 6.53125 -4.640625 C 7.164062 -4.191406 7.929688 -3.800781 8.828125 -3.46875 C 9.722656 -3.132812 10.570312 -2.96875 11.375 -2.96875 C 13.289062 -2.96875 14.820312 -3.566406 15.96875 -4.765625 C 17.113281 -5.960938 17.6875 -7.5625 17.6875 -9.5625 C 17.6875 -10.53125 17.53125 -11.421875 17.21875 -12.234375 C 16.914062 -13.046875 16.484375 -13.75 15.921875 -14.34375 C 15.367188 -14.945312 14.695312 -15.414062 13.90625 -15.75 C 13.125 -16.082031 12.25 -16.25 11.28125 -16.25 C 10.351562 -16.25 9.507812 -16.066406 8.75 -15.703125 C 7.988281 -15.347656 7.335938 -14.835938 6.796875 -14.171875 C 6.265625 -13.503906 5.851562 -12.695312 5.5625 -11.75 C 5.269531 -10.800781 5.125 -9.753906 5.125 -8.609375 L 5.125 8.640625 L 1.59375 8.640625 L 1.59375 -9.203125 C 1.59375 -10.671875 1.828125 -12.039062 2.296875 -13.3125 C 2.765625 -14.582031 3.421875 -15.679688 4.265625 -16.609375 C 5.109375 -17.546875 6.125 -18.28125 7.3125 -18.8125 C 8.5 -19.34375 9.820312 -19.609375 11.28125 -19.609375 C 12.8125 -19.609375 14.1875 -19.332031 15.40625 -18.78125 C 16.632812 -18.238281 17.679688 -17.492188 18.546875 -16.546875 C 19.421875 -15.597656 20.082031 -14.484375 20.53125 -13.203125 C 20.988281 -11.921875 21.21875 -10.5625 21.21875 -9.125 Z M 21.21875 -9.125 "/></g></g></g><g fill="#8a0015" fill-opacity="1"><g transform="translate(62.760325, 27.815946)"><g><path d="M 5.328125 -28.015625 L 5.328125 -17.53125 C 5.859375 -18.144531 6.554688 -18.644531 7.421875 -19.03125 C 8.296875 -19.414062 9.25 -19.609375 10.28125 -19.609375 C 13.007812 -19.609375 15.015625 -18.898438 16.296875 -17.484375 C 17.578125 -16.078125 18.21875 -14.023438 18.21875 -11.328125 L 18.21875 0 L 14.6875 0 L 14.6875 -11.328125 C 14.6875 -12.847656 14.3125 -14.046875 13.5625 -14.921875 C 12.820312 -15.804688 11.632812 -16.25 10 -16.25 C 8.664062 -16.25 7.546875 -15.753906 6.640625 -14.765625 C 5.765625 -13.753906 5.328125 -12.59375 5.328125 -11.28125 L 5.328125 0 L 1.796875 0 L 1.796875 -28.015625 Z M 5.328125 -28.015625 "/></g></g></g><g fill="#8a0015" fill-opacity="1"><g transform="translate(78.16914, 27.815946)"><g><path d="M 7.921875 -2.125 C 7.921875 -1.457031 7.6875 -0.894531 7.21875 -0.4375 C 6.757812 0.0078125 6.207031 0.234375 5.5625 0.234375 C 4.925781 0.234375 4.375 0.0078125 3.90625 -0.4375 C 3.4375 -0.894531 3.203125 -1.457031 3.203125 -2.125 C 3.203125 -2.789062 3.4375 -3.347656 3.90625 -3.796875 C 4.375 -4.253906 4.925781 -4.484375 5.5625 -4.484375 C 6.207031 -4.484375 6.757812 -4.253906 7.21875 -3.796875 C 7.6875 -3.347656 7.921875 -2.789062 7.921875 -2.125 Z M 7.921875 -2.125 "/></g></g></g><g fill="#332d27" fill-opacity="1"><g transform="translate(87.434216, 28.747993)"><g><path d="M 6.171875 -8.375 L 6.171875 -3 C 6.171875 -2.550781 6.097656 -2.132812 5.953125 -1.75 C 5.816406 -1.375 5.625 -1.046875 5.375 -0.765625 C 5.125 -0.492188 4.816406 -0.273438 4.453125 -0.109375 C 4.097656 0.046875 3.707031 0.125 3.28125 0.125 C 2.8125 0.125 2.394531 0.0390625 2.03125 -0.125 C 1.664062 -0.289062 1.351562 -0.515625 1.09375 -0.796875 C 0.84375 -1.085938 0.648438 -1.421875 0.515625 -1.796875 C 0.378906 -2.179688 0.3125 -2.585938 0.3125 -3.015625 C 0.3125 -3.410156 0.382812 -3.78125 0.53125 -4.125 C 0.6875 -4.476562 0.890625 -4.78125 1.140625 -5.03125 C 1.390625 -5.289062 1.679688 -5.492188 2.015625 -5.640625 C 2.359375 -5.785156 2.710938 -5.859375 3.078125 -5.859375 C 3.359375 -5.859375 3.632812 -5.828125 3.90625 -5.765625 C 4.1875 -5.703125 4.453125 -5.597656 4.703125 -5.453125 L 4.703125 -4.359375 C 4.515625 -4.492188 4.285156 -4.609375 4.015625 -4.703125 C 3.742188 -4.804688 3.488281 -4.859375 3.25 -4.859375 C 2.675781 -4.859375 2.21875 -4.675781 1.875 -4.3125 C 1.53125 -3.957031 1.359375 -3.484375 1.359375 -2.890625 C 1.359375 -2.585938 1.40625 -2.3125 1.5 -2.0625 C 1.601562 -1.820312 1.738281 -1.613281 1.90625 -1.4375 C 2.082031 -1.257812 2.285156 -1.125 2.515625 -1.03125 C 2.742188 -0.9375 3 -0.890625 3.28125 -0.890625 C 3.550781 -0.890625 3.800781 -0.941406 4.03125 -1.046875 C 4.257812 -1.160156 4.453125 -1.316406 4.609375 -1.515625 C 4.773438 -1.710938 4.898438 -1.953125 4.984375 -2.234375 C 5.078125 -2.523438 5.125 -2.84375 5.125 -3.1875 L 5.125 -8.375 Z M 6.171875 -8.375 "/></g></g></g><g fill="#332d27" fill-opacity="1"><g transform="translate(92.709683, 28.747993)"><g><path d="M 2.234375 -1.890625 L 1.8125 -2.734375 L 4.640625 -4.3125 C 4.441406 -4.507812 4.253906 -4.648438 4.078125 -4.734375 C 3.898438 -4.816406 3.65625 -4.859375 3.34375 -4.859375 C 3.0625 -4.859375 2.804688 -4.8125 2.578125 -4.71875 C 2.347656 -4.625 2.148438 -4.488281 1.984375 -4.3125 C 1.816406 -4.132812 1.6875 -3.921875 1.59375 -3.671875 C 1.5 -3.429688 1.453125 -3.164062 1.453125 -2.875 C 1.453125 -2.570312 1.5 -2.300781 1.59375 -2.0625 C 1.6875 -1.820312 1.816406 -1.613281 1.984375 -1.4375 C 2.148438 -1.257812 2.347656 -1.125 2.578125 -1.03125 C 2.804688 -0.9375 3.0625 -0.890625 3.34375 -0.890625 C 3.894531 -0.890625 4.316406 -1.03125 4.609375 -1.3125 C 4.910156 -1.59375 5.128906 -2.050781 5.265625 -2.6875 L 6.328125 -2.546875 C 6.285156 -2.148438 6.179688 -1.785156 6.015625 -1.453125 C 5.859375 -1.117188 5.644531 -0.835938 5.375 -0.609375 C 5.113281 -0.378906 4.804688 -0.195312 4.453125 -0.0625 C 4.109375 0.0625 3.738281 0.125 3.34375 0.125 C 2.9375 0.125 2.550781 0.0507812 2.1875 -0.09375 C 1.820312 -0.25 1.503906 -0.457031 1.234375 -0.71875 C 0.972656 -0.988281 0.757812 -1.304688 0.59375 -1.671875 C 0.4375 -2.035156 0.359375 -2.4375 0.359375 -2.875 C 0.359375 -3.3125 0.4375 -3.710938 0.59375 -4.078125 C 0.757812 -4.441406 0.976562 -4.753906 1.25 -5.015625 C 1.519531 -5.285156 1.832031 -5.492188 2.1875 -5.640625 C 2.550781 -5.785156 2.9375 -5.859375 3.34375 -5.859375 C 4.019531 -5.859375 4.582031 -5.695312 5.03125 -5.375 C 5.476562 -5.050781 5.835938 -4.609375 6.109375 -4.046875 Z M 2.234375 -1.890625 "/></g></g></g><g fill="#332d27" fill-opacity="1"><g transform="translate(97.985149, 28.747993)"><g><path d="M 1 -5.75 L 2.671875 -1.296875 L 4.328125 -5.75 L 5.484375 -5.75 L 3.46875 -0.453125 C 3.382812 -0.222656 3.28125 -0.0703125 3.15625 0 C 3.03125 0.0820312 2.863281 0.125 2.65625 0.125 C 2.445312 0.125 2.28125 0.0820312 2.15625 0 C 2.03125 -0.0703125 1.925781 -0.222656 1.84375 -0.453125 L -0.15625 -5.75 Z M 1 -5.75 "/></g></g></g></svg>