<svg xmlns="http://www.w3.org/2000/svg" xmlns:xlink="http://www.w3.org/1999/xlink" width="500" zoomAndPan="magnify" viewBox="0 0 375 374.999991" height="500" preserveAspectRatio="xMidYMid meet" version="1.0"><defs><g/></defs><g fill="#353535" fill-opacity="1"><g transform="translate(12.942295, 336.021436)"><g><path d="M 325.421875 0 L 269.921875 0 L 269.921875 -172.171875 C 269.921875 -184.785156 267.503906 -196.238281 262.671875 -206.53125 C 257.835938 -216.832031 251.003906 -225.660156 242.171875 -233.015625 C 233.335938 -240.378906 222.929688 -246.054688 210.953125 -250.046875 C 198.972656 -254.046875 185.832031 -256.046875 171.53125 -256.046875 C 156.820312 -256.046875 143.367188 -253.3125 131.171875 -247.84375 C 118.984375 -242.382812 108.472656 -234.921875 99.640625 -225.453125 C 90.816406 -215.992188 83.984375 -204.851562 79.140625 -192.03125 C 74.304688 -179.207031 71.890625 -165.226562 71.890625 -150.09375 C 71.890625 -135.800781 74.304688 -122.453125 79.140625 -110.046875 C 83.984375 -97.640625 90.816406 -86.707031 99.640625 -77.25 C 108.472656 -67.789062 118.984375 -60.328125 131.171875 -54.859375 C 143.367188 -49.398438 156.613281 -46.671875 170.90625 -46.671875 C 186.882812 -46.671875 201.179688 -50.554688 213.796875 -58.328125 C 226.410156 -66.109375 237.550781 -76.097656 247.21875 -88.296875 L 247.21875 -22.703125 C 235.445312 -13.453125 223.359375 -6.300781 210.953125 -1.25 C 198.546875 3.789062 183.304688 6.3125 165.234375 6.3125 C 144.210938 6.3125 124.554688 2.210938 106.265625 -5.984375 C 87.972656 -14.179688 72.203125 -25.425781 58.953125 -39.71875 C 45.710938 -54.019531 35.304688 -71.050781 27.734375 -90.8125 C 20.171875 -110.570312 16.390625 -131.804688 16.390625 -154.515625 C 16.390625 -177.210938 20.171875 -198.125 27.734375 -217.25 C 35.304688 -236.382812 46.03125 -252.675781 59.90625 -266.125 C 73.78125 -279.582031 90.28125 -290.09375 109.40625 -297.65625 C 128.539062 -305.226562 149.671875 -309.015625 172.796875 -309.015625 C 195.921875 -309.015625 216.941406 -305.546875 235.859375 -298.609375 C 254.785156 -291.671875 270.867188 -282 284.109375 -269.59375 C 297.347656 -257.195312 307.539062 -242.378906 314.6875 -225.140625 C 321.84375 -207.898438 325.421875 -188.769531 325.421875 -167.75 Z M 325.421875 0 "/></g></g></g></svg>